<?xml version="1.0" encoding="utf-8" standalone="no"?>
<!DOCTYPE svg PUBLIC "-//W3C//DTD SVG 1.1//EN"
  "http://www.w3.org/Graphics/SVG/1.1/DTD/svg11.dtd">
<!-- Created with matplotlib (https://matplotlib.org/) -->
<svg height="237.6pt" version="1.1" viewBox="0 0 237.6 237.6" width="237.6pt" xmlns="http://www.w3.org/2000/svg" xmlns:xlink="http://www.w3.org/1999/xlink">
 <defs>
  <style type="text/css">
*{stroke-linecap:butt;stroke-linejoin:round;}
  </style>
 </defs>
 <g id="figure_1">
  <g id="patch_1">
   <path d="M 0 237.6 
L 237.6 237.6 
L 237.6 0 
L 0 0 
z
" style="fill:#ffffff;"/>
  </g>
  <g id="axes_1">
   <g id="patch_2">
    <path clip-path="url(#p5793e36745)" d="M 214.006612 214.006612 
Q 170.734004 187.108684 128.410938 160.800985 
" style="fill:none;stroke:#000000;stroke-linecap:round;stroke-opacity:0.99;"/>
    <path clip-path="url(#p5793e36745)" d="M 130.752291 164.611243 
L 128.410938 160.800985 
L 132.863956 161.214058 
L 130.752291 164.611243 
z
" style="fill-opacity:0.99;stroke:#000000;stroke-linecap:round;stroke-opacity:0.99;"/>
   </g>
   <g id="patch_3">
    <path clip-path="url(#p5793e36745)" d="M 90.488891 23.593388 
Q 99.057002 76.9893 107.447976 129.281299 
" style="fill:none;stroke:#000000;stroke-linecap:round;stroke-opacity:0.99;"/>
    <path clip-path="url(#p5793e36745)" d="M 108.788966 125.014949 
L 107.447976 129.281299 
L 104.839489 125.648697 
L 108.788966 125.014949 
z
" style="fill-opacity:0.99;stroke:#000000;stroke-linecap:round;stroke-opacity:0.99;"/>
   </g>
   <g id="patch_4">
    <path clip-path="url(#p5793e36745)" d="M 90.488891 23.593388 
Q 63.233482 65.92665 36.583304 107.319862 
" style="fill:none;stroke:#000000;stroke-linecap:round;stroke-opacity:0.99;"/>
    <path clip-path="url(#p5793e36745)" d="M 40.430261 105.039309 
L 36.583304 107.319862 
L 37.067036 102.873965 
L 40.430261 105.039309 
z
" style="fill-opacity:0.99;stroke:#000000;stroke-linecap:round;stroke-opacity:0.99;"/>
   </g>
   <g id="patch_5">
    <path clip-path="url(#p5793e36745)" d="M 90.488891 23.593388 
Q 66.781082 27.023638 44.179785 30.293788 
" style="fill:none;stroke:#000000;stroke-linecap:round;stroke-opacity:0.99;"/>
    <path clip-path="url(#p5793e36745)" d="M 48.424957 31.700386 
L 44.179785 30.293788 
L 47.852167 27.74161 
L 48.424957 31.700386 
z
" style="fill-opacity:0.99;stroke:#000000;stroke-linecap:round;stroke-opacity:0.99;"/>
   </g>
   <g id="patch_6">
    <path clip-path="url(#p5793e36745)" d="M 110.743544 149.819066 
Q 154.016152 176.716993 196.339217 203.024692 
" style="fill:none;stroke:#000000;stroke-linecap:round;stroke-opacity:0.99;"/>
    <path clip-path="url(#p5793e36745)" d="M 193.997864 199.214434 
L 196.339217 203.024692 
L 191.886199 202.61162 
L 193.997864 199.214434 
z
" style="fill-opacity:0.99;stroke:#000000;stroke-linecap:round;stroke-opacity:0.99;"/>
   </g>
   <g id="patch_7">
    <path clip-path="url(#p5793e36745)" d="M 110.743544 149.819066 
Q 77.477997 140.081561 45.285458 130.658146 
" style="fill:none;stroke:#000000;stroke-linecap:round;stroke-opacity:0.99;"/>
    <path clip-path="url(#p5793e36745)" d="M 48.562505 133.701329 
L 45.285458 130.658146 
L 49.686233 129.862419 
L 48.562505 133.701329 
z
" style="fill-opacity:0.99;stroke:#000000;stroke-linecap:round;stroke-opacity:0.99;"/>
   </g>
   <g id="patch_8">
    <path clip-path="url(#p5793e36745)" d="M 110.743544 149.819066 
Q 73.063495 99.429209 36.052989 49.934737 
" style="fill:none;stroke:#000000;stroke-linecap:round;stroke-opacity:0.99;"/>
    <path clip-path="url(#p5793e36745)" d="M 36.846703 54.335876 
L 36.052989 49.934737 
L 40.050128 51.940449 
L 36.846703 54.335876 
z
" style="fill-opacity:0.99;stroke:#000000;stroke-linecap:round;stroke-opacity:0.99;"/>
   </g>
   <g id="patch_9">
    <path clip-path="url(#p5793e36745)" d="M 25.320132 124.813887 
Q 58.585679 134.551393 90.778218 143.974807 
" style="fill:none;stroke:#000000;stroke-linecap:round;stroke-opacity:0.99;"/>
    <path clip-path="url(#p5793e36745)" d="M 87.501171 140.931624 
L 90.778218 143.974807 
L 86.377443 144.770535 
L 87.501171 140.931624 
z
" style="fill-opacity:0.99;stroke:#000000;stroke-linecap:round;stroke-opacity:0.99;"/>
   </g>
   <g id="patch_10">
    <path clip-path="url(#p5793e36745)" d="M 25.320132 124.813887 
Q 52.575542 82.480625 79.225719 41.087414 
" style="fill:none;stroke:#000000;stroke-linecap:round;stroke-opacity:0.99;"/>
    <path clip-path="url(#p5793e36745)" d="M 75.378762 43.367967 
L 79.225719 41.087414 
L 78.741987 45.533311 
L 75.378762 43.367967 
z
" style="fill-opacity:0.99;stroke:#000000;stroke-linecap:round;stroke-opacity:0.99;"/>
   </g>
   <g id="patch_11">
    <path clip-path="url(#p5793e36745)" d="M 25.320132 124.813887 
Q 24.642382 88.883688 23.985718 54.071324 
" style="fill:none;stroke:#000000;stroke-linecap:round;stroke-opacity:0.99;"/>
    <path clip-path="url(#p5793e36745)" d="M 22.061512 58.108331 
L 23.985718 54.071324 
L 26.0608 58.032893 
L 22.061512 58.108331 
z
" style="fill-opacity:0.99;stroke:#000000;stroke-linecap:round;stroke-opacity:0.99;"/>
   </g>
   <g id="patch_12">
    <path clip-path="url(#p5793e36745)" d="M 23.593388 33.272405 
Q 61.273437 83.662262 98.283943 133.156734 
" style="fill:none;stroke:#000000;stroke-linecap:round;stroke-opacity:0.99;"/>
    <path clip-path="url(#p5793e36745)" d="M 97.490229 128.755595 
L 98.283943 133.156734 
L 94.286804 131.151022 
L 97.490229 128.755595 
z
" style="fill-opacity:0.99;stroke:#000000;stroke-linecap:round;stroke-opacity:0.99;"/>
   </g>
   <g id="patch_13">
    <path clip-path="url(#p5793e36745)" d="M 23.593388 33.272405 
Q 24.271139 69.202604 24.927803 104.014969 
" style="fill:none;stroke:#000000;stroke-linecap:round;stroke-opacity:0.99;"/>
    <path clip-path="url(#p5793e36745)" d="M 26.852009 99.977961 
L 24.927803 104.014969 
L 22.85272 100.053399 
L 26.852009 99.977961 
z
" style="fill-opacity:0.99;stroke:#000000;stroke-linecap:round;stroke-opacity:0.99;"/>
   </g>
   <g id="patch_14">
    <path clip-path="url(#p5793e36745)" d="M 23.593388 33.272405 
Q 47.301197 29.842155 69.902494 26.572005 
" style="fill:none;stroke:#000000;stroke-linecap:round;stroke-opacity:0.99;"/>
    <path clip-path="url(#p5793e36745)" d="M 65.657322 25.165407 
L 69.902494 26.572005 
L 66.230112 29.124183 
L 65.657322 25.165407 
z
" style="fill-opacity:0.99;stroke:#000000;stroke-linecap:round;stroke-opacity:0.99;"/>
   </g>
   <g id="PathCollection_1">
    <defs>
     <path d="M 0 19.68502 
C 5.220528 19.68502 10.22794 17.610882 13.919411 13.919411 
C 17.610882 10.22794 19.68502 5.220528 19.68502 0 
C 19.68502 -5.220528 17.610882 -10.22794 13.919411 -13.919411 
C 10.22794 -17.610882 5.220528 -19.68502 0 -19.68502 
C -5.220528 -19.68502 -10.22794 -17.610882 -13.919411 -13.919411 
C -17.610882 -10.22794 -19.68502 -5.220528 -19.68502 0 
C -19.68502 5.220528 -17.610882 10.22794 -13.919411 13.919411 
C -10.22794 17.610882 -5.220528 19.68502 0 19.68502 
z
" id="mb0d3d6c96b" style="stroke:#800080;stroke-opacity:0.99;"/>
    </defs>
    <g clip-path="url(#p5793e36745)">
     <use style="fill:#800080;fill-opacity:0.99;stroke:#800080;stroke-opacity:0.99;" x="214.006612" xlink:href="#mb0d3d6c96b" y="214.006612"/>
     <use style="fill:#800080;fill-opacity:0.99;stroke:#800080;stroke-opacity:0.99;" x="90.488891" xlink:href="#mb0d3d6c96b" y="23.593388"/>
     <use style="fill:#800080;fill-opacity:0.99;stroke:#800080;stroke-opacity:0.99;" x="110.743544" xlink:href="#mb0d3d6c96b" y="149.819066"/>
     <use style="fill:#800080;fill-opacity:0.99;stroke:#800080;stroke-opacity:0.99;" x="25.320132" xlink:href="#mb0d3d6c96b" y="124.813887"/>
     <use style="fill:#800080;fill-opacity:0.99;stroke:#800080;stroke-opacity:0.99;" x="23.593388" xlink:href="#mb0d3d6c96b" y="33.272405"/>
    </g>
   </g>
   <g id="text_1">
    <g clip-path="url(#p5793e36745)">
     <!-- 宋丹丹 -->
     <defs>
      <path d="M 56.25 53.90625 
L 52.734375 51.171875 
L 52.734375 40.625 
L 78.515625 40.625 
L 84.765625 46.875 
L 93.359375 38.28125 
L 56.25 38.28125 
Q 64.453125 23.4375 75 16.015625 
Q 85.546875 8.59375 95.703125 7.03125 
L 95.703125 5.46875 
Q 89.0625 4.296875 86.71875 0 
Q 75 7.421875 67.1875 16.203125 
Q 59.375 25 54.296875 38.28125 
L 52.734375 38.28125 
Q 52.734375 1.953125 53.125 -5.859375 
L 46.875 -8.984375 
Q 47.265625 -1.953125 47.265625 34.765625 
Q 41.796875 23.828125 31.640625 13.46875 
Q 21.484375 3.125 5.46875 -4.296875 
L 4.296875 -3.125 
Q 17.578125 5.078125 26.953125 15.03125 
Q 36.328125 25 42.578125 38.28125 
L 19.921875 38.28125 
Q 14.84375 38.28125 10.546875 37.109375 
L 7.03125 40.625 
L 47.265625 40.625 
Q 47.265625 54.296875 46.875 58.203125 
z
M 42.578125 80.859375 
L 43.75 81.640625 
Q 49.609375 78.515625 52.34375 75.578125 
Q 55.078125 72.65625 55.078125 70.703125 
Q 55.078125 68.359375 53.125 66.203125 
Q 51.171875 64.0625 50.78125 64.0625 
Q 49.21875 64.0625 48.828125 67.96875 
Q 47.65625 73.4375 42.578125 80.859375 
z
M 77.34375 51.171875 
L 82.421875 61.328125 
L 18.359375 61.328125 
Q 19.140625 55.078125 17.375 52.734375 
Q 15.625 50.390625 12.109375 50.578125 
Q 8.59375 50.78125 8.59375 51.953125 
Q 8.59375 53.125 10.546875 55.46875 
Q 14.453125 60.15625 16.015625 68.359375 
L 17.96875 68.359375 
L 18.359375 63.671875 
L 82.03125 63.671875 
L 85.546875 67.96875 
L 92.96875 60.546875 
Q 86.71875 60.546875 78.515625 50.390625 
z
" id="SimSun-23435"/>
      <path d="M 25.390625 39.453125 
Q 25.390625 69.921875 25 80.078125 
L 31.25 76.171875 
L 67.96875 76.171875 
L 71.875 80.46875 
L 78.125 75.390625 
L 74.21875 72.65625 
L 74.21875 39.453125 
L 82.421875 39.453125 
L 87.890625 44.921875 
L 95.703125 37.109375 
L 74.21875 37.109375 
L 74.21875 0 
Q 74.21875 -5.859375 65.625 -8.984375 
Q 65.234375 -3.90625 51.171875 0.390625 
L 51.171875 2.34375 
Q 62.109375 0.390625 65.421875 0.578125 
Q 68.75 0.78125 68.75 4.6875 
L 68.75 37.109375 
L 31.25 37.109375 
Q 31.25 7.03125 4.296875 -9.375 
L 3.515625 -7.8125 
Q 24.609375 7.421875 25.390625 37.109375 
L 16.796875 37.109375 
Q 11.71875 37.109375 7.421875 35.9375 
L 3.90625 39.453125 
z
M 41.796875 65.625 
Q 50.78125 60.15625 53.515625 56.640625 
Q 56.25 53.125 56.25 51.171875 
Q 56.25 49.21875 54.484375 46.875 
Q 52.734375 44.53125 51.953125 44.53125 
Q 50 44.53125 48.828125 49.609375 
Q 46.875 57.03125 41.015625 64.453125 
z
M 31.25 73.828125 
L 31.25 39.453125 
L 68.75 39.453125 
L 68.75 73.828125 
z
" id="SimSun-20025"/>
     </defs>
     <g style="fill:#ffffff;opacity:0.99;" transform="translate(193.006612 218.573018)scale(0.14 -0.14)">
      <use xlink:href="#SimSun-23435"/>
      <use x="100" xlink:href="#SimSun-20025"/>
      <use x="200" xlink:href="#SimSun-20025"/>
     </g>
    </g>
   </g>
   <g id="text_2">
    <g clip-path="url(#p5793e36745)">
     <!-- 文章 -->
     <defs>
      <path d="M 44.140625 80.46875 
Q 49.609375 76.953125 52.140625 74.015625 
Q 54.6875 71.09375 54.6875 69.140625 
Q 54.6875 67.1875 53.125 65.03125 
Q 51.5625 62.890625 50.390625 62.890625 
Q 49.21875 62.890625 48.4375 66.796875 
Q 47.265625 73.046875 42.96875 79.6875 
z
M 7.03125 60.546875 
L 79.6875 60.546875 
L 85.9375 66.796875 
L 94.53125 58.203125 
L 70.3125 58.203125 
Q 65.234375 32.8125 53.125 16.015625 
Q 68.75 1.953125 94.140625 0 
L 94.140625 -1.5625 
Q 86.71875 -2.734375 85.546875 -7.421875 
Q 61.71875 -0.390625 49.609375 12.890625 
Q 31.25 -3.90625 5.078125 -8.984375 
L 4.6875 -7.8125 
Q 30.078125 -0.390625 46.484375 16.40625 
Q 35.15625 33.203125 30.46875 58.203125 
L 19.921875 58.203125 
Q 14.84375 58.203125 10.546875 57.03125 
z
M 32.8125 58.203125 
Q 38.28125 35.546875 49.609375 20.3125 
Q 59.765625 35.546875 64.0625 58.203125 
z
" id="SimSun-25991"/>
      <path d="M 55.46875 53.125 
Q 59.375 60.546875 61.328125 67.96875 
L 30.46875 67.96875 
Q 25.390625 67.96875 21.09375 66.796875 
L 17.578125 70.3125 
L 47.265625 70.3125 
Q 47.265625 75.78125 42.96875 81.25 
L 43.75 82.03125 
Q 50.390625 79.296875 51.75 77.53125 
Q 53.125 75.78125 53.125 74.609375 
Q 53.125 73.046875 50.78125 70.3125 
L 70.3125 70.3125 
L 75.390625 75.78125 
L 82.421875 67.96875 
L 62.890625 67.96875 
L 68.75 64.0625 
Q 65.234375 63.28125 57.421875 53.125 
L 79.296875 53.125 
L 85.15625 58.59375 
L 92.1875 50.78125 
L 20.703125 50.78125 
Q 15.625 50.78125 11.328125 49.609375 
L 7.8125 53.125 
z
M 46.875 -10.546875 
Q 47.265625 2.34375 47.265625 6.25 
L 20.3125 6.25 
Q 15.234375 6.25 10.9375 5.078125 
L 7.421875 8.59375 
L 47.265625 8.59375 
L 47.265625 19.140625 
L 28.90625 19.140625 
L 28.90625 16.796875 
L 23.046875 14.84375 
Q 23.4375 19.921875 23.4375 30.46875 
Q 23.4375 41.015625 23.046875 46.875 
L 28.90625 43.359375 
L 70.3125 43.359375 
L 73.4375 47.265625 
L 79.6875 42.1875 
L 76.5625 39.84375 
Q 76.5625 25.78125 76.953125 17.96875 
L 71.09375 15.625 
L 71.09375 19.140625 
L 52.734375 19.140625 
L 52.734375 8.59375 
L 79.6875 8.59375 
L 85.546875 13.671875 
L 92.578125 6.25 
L 52.734375 6.25 
Q 52.734375 -4.6875 53.125 -8.59375 
z
M 28.90625 41.015625 
L 28.90625 32.03125 
L 71.09375 32.03125 
L 71.09375 41.015625 
z
M 28.90625 29.6875 
L 28.90625 21.484375 
L 71.09375 21.484375 
L 71.09375 29.6875 
z
M 32.8125 67.96875 
Q 39.0625 64.453125 40.8125 62.5 
Q 42.578125 60.546875 42.578125 58.984375 
Q 42.578125 57.03125 41.015625 55.078125 
Q 39.453125 53.125 38.671875 53.125 
Q 37.5 53.125 36.71875 56.640625 
Q 35.546875 62.109375 32.03125 67.1875 
z
" id="SimSun-31456"/>
     </defs>
     <g style="fill:#ffffff;opacity:0.99;" transform="translate(76.488891 28.26917)scale(0.14 -0.14)">
      <use xlink:href="#SimSun-25991"/>
      <use x="100" xlink:href="#SimSun-31456"/>
     </g>
    </g>
   </g>
   <g id="text_3">
    <g clip-path="url(#p5793e36745)">
     <!-- 姚晨 -->
     <defs>
      <path d="M 41.796875 59.765625 
L 42.96875 60.546875 
Q 49.609375 54.6875 50.96875 51.953125 
Q 52.34375 49.21875 52.34375 47.65625 
Q 52.34375 45.3125 50.78125 43.546875 
Q 49.21875 41.796875 48.828125 41.796875 
Q 47.265625 41.796875 46.875 46.09375 
Q 45.703125 51.953125 41.796875 59.765625 
z
M 55.46875 79.6875 
L 64.0625 75.78125 
L 60.9375 73.4375 
L 60.9375 40.234375 
Q 61.328125 24.609375 55.46875 12.296875 
Q 49.609375 0 33.59375 -9.375 
L 32.8125 -8.203125 
Q 45.3125 1.5625 50.1875 11.71875 
Q 55.078125 21.875 55.859375 32.8125 
Q 45.703125 24.609375 43.359375 20.3125 
L 38.28125 25.390625 
Q 42.96875 27.34375 55.859375 34.765625 
Q 55.859375 67.578125 55.46875 79.6875 
z
M 90.234375 15.234375 
L 91.796875 15.234375 
Q 91.796875 8.984375 92.375 4.09375 
Q 92.96875 -0.78125 95.703125 -1.5625 
Q 93.75 -6.25 87.109375 -6.25 
L 76.5625 -6.25 
Q 69.140625 -5.859375 69.53125 0.78125 
L 69.53125 68.359375 
Q 69.53125 73.046875 69.140625 79.6875 
L 77.734375 75.390625 
L 74.609375 73.046875 
L 74.609375 44.53125 
Q 84.765625 54.6875 87.5 60.546875 
L 93.359375 54.296875 
Q 90.234375 53.515625 84.953125 50 
Q 79.6875 46.484375 74.609375 42.1875 
L 74.609375 34.765625 
Q 87.109375 30.46875 89.25 27.921875 
Q 91.40625 25.390625 91.40625 23.046875 
Q 91.40625 22.265625 90.8125 20.3125 
Q 90.234375 18.359375 89.453125 18.359375 
Q 88.28125 18.359375 86.328125 21.484375 
Q 83.203125 26.5625 74.609375 32.8125 
L 74.609375 3.90625 
Q 74.21875 -1.953125 80.078125 -1.953125 
L 85.9375 -1.953125 
Q 88.28125 -1.5625 89.0625 2.734375 
Q 89.84375 7.03125 90.234375 15.234375 
z
M 22.265625 55.078125 
Q 19.921875 46.09375 13.28125 23.046875 
Q 19.53125 21.09375 25.390625 18.75 
Q 31.640625 35.546875 33.984375 55.078125 
z
M 30.078125 76.953125 
L 26.953125 74.609375 
Q 25.390625 69.53125 22.65625 57.421875 
L 33.59375 57.421875 
L 35.9375 60.9375 
L 41.796875 56.25 
L 39.0625 53.90625 
Q 35.15625 31.25 29.6875 16.796875 
Q 36.71875 13.671875 38.46875 11.328125 
Q 40.234375 8.984375 39.84375 6.4375 
Q 39.453125 3.90625 38.671875 3.90625 
Q 37.5 3.90625 35.9375 5.859375 
Q 32.421875 9.375 27.734375 12.5 
Q 18.75 -1.5625 5.46875 -9.375 
L 4.6875 -8.59375 
Q 16.796875 1.5625 23.828125 14.84375 
Q 14.453125 20.703125 8.59375 22.65625 
Q 12.890625 37.109375 17.1875 55.078125 
Q 12.109375 55.078125 7.8125 53.90625 
L 4.296875 57.421875 
L 17.578125 57.421875 
Q 21.09375 74.21875 21.875 81.25 
z
" id="SimSun-23002"/>
      <path d="M 20.3125 44.921875 
L 20.3125 25.78125 
L 81.25 25.78125 
L 86.328125 30.859375 
L 93.75 23.4375 
L 73.046875 23.4375 
L 78.125 19.53125 
Q 74.609375 18.359375 71.484375 16.40625 
Q 68.359375 14.453125 62.109375 9.375 
Q 67.578125 5.46875 76.75 2.734375 
Q 85.9375 0 94.140625 0 
L 94.140625 -1.5625 
Q 87.890625 -2.734375 86.71875 -7.03125 
Q 75.78125 -4.6875 65.234375 1.5625 
Q 54.6875 7.8125 46.875 23.4375 
L 36.71875 23.4375 
L 36.71875 0.390625 
L 56.25 5.46875 
L 56.640625 4.296875 
Q 38.28125 -3.90625 34.375 -8.203125 
L 30.078125 -1.953125 
Q 31.640625 -0.78125 31.640625 3.515625 
L 31.640625 23.4375 
L 20.3125 23.4375 
Q 19.921875 10.546875 16.59375 3.515625 
Q 13.28125 -3.515625 5.078125 -9.765625 
L 3.90625 -8.59375 
Q 10.9375 -1.953125 13.078125 7.03125 
Q 15.234375 16.015625 15.234375 26.75 
Q 15.234375 37.5 14.84375 50.78125 
L 21.484375 47.265625 
L 77.734375 47.265625 
L 82.421875 51.953125 
L 89.453125 44.921875 
z
M 49.21875 23.4375 
Q 54.6875 14.84375 60.546875 10.546875 
Q 67.1875 17.96875 70.703125 23.4375 
z
M 25 36.328125 
L 69.53125 36.328125 
L 73.828125 40.625 
L 80.46875 33.984375 
L 37.890625 33.984375 
Q 32.03125 33.984375 28.515625 32.8125 
z
M 27.34375 75 
L 27.34375 67.1875 
L 73.4375 67.1875 
L 73.4375 75 
z
M 27.34375 64.84375 
L 27.34375 57.03125 
L 73.4375 57.03125 
L 73.4375 64.84375 
z
M 21.875 50 
Q 22.265625 57.421875 22.265625 64.84375 
Q 22.265625 72.265625 21.875 80.078125 
L 27.734375 77.34375 
L 72.65625 77.34375 
L 76.171875 81.25 
L 82.421875 76.171875 
L 78.515625 73.4375 
Q 78.515625 57.421875 78.90625 53.125 
L 73.4375 50.78125 
L 73.4375 54.6875 
L 27.34375 54.6875 
L 27.34375 52.34375 
z
" id="SimSun-26216"/>
     </defs>
     <g style="fill:#ffffff;opacity:0.99;" transform="translate(96.743544 154.385472)scale(0.14 -0.14)">
      <use xlink:href="#SimSun-23002"/>
      <use x="100" xlink:href="#SimSun-26216"/>
     </g>
    </g>
   </g>
   <g id="text_4">
    <g clip-path="url(#p5793e36745)">
     <!-- 赵薇 -->
     <defs>
      <path d="M 82.8125 76.953125 
L 90.625 71.484375 
L 87.5 69.921875 
Q 81.640625 53.90625 76.5625 42.1875 
Q 82.421875 34.375 85.9375 28.703125 
Q 89.453125 23.046875 89.640625 19.328125 
Q 89.84375 15.625 88.671875 13.671875 
Q 87.5 11.71875 86.71875 11.71875 
Q 85.15625 11.71875 83.203125 17.96875 
Q 80.46875 26.5625 73.828125 37.5 
Q 64.0625 20.3125 48.046875 7.421875 
L 46.875 8.59375 
Q 62.109375 23.828125 70.703125 42.578125 
Q 60.9375 59.765625 54.296875 70.3125 
L 55.46875 71.09375 
Q 66.015625 57.8125 73.046875 47.265625 
Q 78.125 58.984375 82.8125 76.953125 
z
M 9.765625 64.84375 
L 27.34375 64.84375 
Q 27.34375 74.609375 26.953125 82.03125 
L 35.546875 77.734375 
L 32.421875 75.390625 
L 32.421875 64.84375 
L 41.015625 64.84375 
L 45.3125 69.53125 
L 51.5625 62.5 
L 32.421875 62.5 
L 32.421875 45.703125 
L 44.921875 45.703125 
L 49.609375 50.78125 
L 56.640625 43.359375 
L 31.25 43.359375 
L 36.71875 40.234375 
L 33.59375 38.28125 
L 33.59375 28.125 
L 44.140625 28.125 
L 48.046875 31.640625 
L 53.515625 25.78125 
L 33.59375 25.78125 
L 33.59375 5.859375 
Q 43.359375 0.390625 62.6875 0.578125 
Q 82.03125 0.78125 94.53125 1.953125 
L 94.53125 0.390625 
Q 87.5 -1.171875 87.109375 -5.859375 
Q 73.4375 -6.25 57.8125 -5.46875 
Q 42.1875 -4.6875 33.78125 0.390625 
Q 25.390625 5.46875 17.578125 15.234375 
Q 12.5 1.171875 4.6875 -7.03125 
L 3.515625 -6.25 
Q 9.765625 4.296875 12.296875 15.234375 
Q 14.84375 26.171875 14.84375 35.9375 
L 23.4375 32.03125 
L 20.703125 30.078125 
Q 19.53125 24.21875 18.359375 17.1875 
Q 25 10.9375 28.515625 8.59375 
L 28.515625 43.359375 
L 15.234375 43.359375 
Q 12.109375 43.359375 7.8125 42.1875 
L 4.296875 45.703125 
L 27.34375 45.703125 
L 27.34375 62.5 
L 20.3125 62.5 
Q 17.578125 62.5 13.28125 61.328125 
z
" id="SimSun-36213"/>
      <path d="M 22.265625 64.0625 
L 28.515625 58.203125 
Q 25.78125 57.8125 20.3125 51.5625 
Q 14.453125 44.921875 5.46875 39.453125 
L 4.6875 40.625 
Q 10.9375 46.09375 15.421875 52.34375 
Q 19.921875 58.59375 22.265625 64.0625 
z
M 17.1875 -10.15625 
Q 17.578125 -1.5625 17.578125 26.953125 
Q 11.71875 20.703125 5.078125 16.40625 
L 4.296875 17.578125 
Q 11.328125 24.21875 16.40625 32.421875 
Q 21.484375 40.625 24.21875 46.484375 
L 30.859375 41.40625 
Q 28.515625 41.015625 26.359375 38.28125 
Q 24.21875 35.546875 21.484375 32.03125 
L 25.78125 28.90625 
L 22.65625 26.5625 
L 22.65625 -6.640625 
z
M 70.3125 64.84375 
L 78.125 60.9375 
Q 75.78125 59.375 74.609375 56.046875 
Q 73.4375 52.734375 71.484375 44.921875 
L 85.546875 44.921875 
L 89.84375 49.609375 
L 96.09375 42.96875 
L 86.71875 42.96875 
Q 84.765625 23.4375 79.296875 12.109375 
Q 87.109375 0.390625 96.09375 -3.125 
L 96.09375 -4.6875 
Q 91.015625 -4.6875 89.84375 -7.8125 
Q 82.8125 -2.34375 76.171875 8.203125 
Q 67.96875 -2.34375 51.953125 -9.765625 
L 51.171875 -8.59375 
Q 66.015625 0.78125 73.828125 12.890625 
Q 70.703125 21.09375 68.75 35.546875 
Q 66.015625 27.34375 62.890625 22.65625 
L 61.71875 23.4375 
Q 63.671875 27.734375 66.59375 41.203125 
Q 69.53125 54.6875 70.3125 64.84375 
z
M 71.09375 42.578125 
Q 70.3125 40.234375 69.921875 38.28125 
Q 71.875 27.34375 76.171875 16.796875 
Q 80.078125 25.390625 81.640625 42.578125 
z
M 56.25 41.796875 
Q 56.25 52.734375 56.25 57.03125 
L 63.28125 53.125 
L 60.9375 51.171875 
Q 60.9375 42.96875 61.328125 38.671875 
L 56.25 35.9375 
L 56.25 39.453125 
L 39.0625 39.453125 
L 36.328125 36.71875 
L 31.640625 41.015625 
L 33.984375 42.96875 
Q 33.984375 52.734375 33.59375 57.421875 
L 41.40625 53.515625 
L 38.671875 51.5625 
L 38.671875 41.796875 
L 45.3125 41.796875 
Q 45.3125 59.375 44.921875 63.671875 
L 53.125 59.765625 
L 50 57.421875 
L 50 41.796875 
z
M 30.078125 31.640625 
L 52.734375 31.640625 
L 57.03125 35.546875 
L 62.5 29.296875 
L 42.96875 29.296875 
Q 37.890625 29.296875 33.59375 28.125 
z
M 56.25 5.859375 
L 67.578125 12.109375 
L 68.359375 10.9375 
Q 56.25 1.5625 54.296875 -2.734375 
L 50 2.34375 
Q 51.5625 4.296875 51.5625 6.25 
L 51.5625 19.921875 
L 40.234375 19.921875 
Q 40.625 8.203125 37.890625 1.953125 
Q 35.15625 -4.296875 27.734375 -9.765625 
L 26.953125 -8.984375 
Q 32.03125 -2.734375 33.59375 2.140625 
Q 35.15625 7.03125 35.34375 13.078125 
Q 35.546875 19.140625 35.15625 25.390625 
L 40.234375 22.265625 
L 51.171875 22.265625 
L 53.90625 25.78125 
L 58.984375 21.484375 
L 56.25 19.140625 
z
M 65.625 68.75 
Q 65.625 66.40625 66.015625 62.5 
L 60.15625 59.765625 
L 60.15625 68.75 
L 40.625 68.75 
L 40.625 61.71875 
L 34.765625 58.59375 
Q 35.15625 63.671875 35.15625 68.75 
L 18.359375 68.75 
Q 13.28125 68.75 8.984375 67.578125 
L 5.46875 71.09375 
L 35.15625 71.09375 
Q 35.15625 76.171875 34.765625 82.03125 
L 43.75 78.515625 
L 40.625 75.78125 
L 40.625 71.09375 
L 60.15625 71.09375 
Q 60.15625 76.953125 59.765625 82.03125 
L 68.75 77.734375 
L 65.625 75.390625 
L 65.625 71.09375 
L 80.46875 71.09375 
L 86.328125 76.5625 
L 93.75 68.75 
z
" id="SimSun-34183"/>
     </defs>
     <g style="fill:#ffffff;opacity:0.99;" transform="translate(11.320132 129.462325)scale(0.14 -0.14)">
      <use xlink:href="#SimSun-36213"/>
      <use x="100" xlink:href="#SimSun-34183"/>
     </g>
    </g>
   </g>
   <g id="text_5">
    <g clip-path="url(#p5793e36745)">
     <!-- 陈坤 -->
     <defs>
      <path d="M 50 28.90625 
L 57.8125 23.4375 
L 54.296875 21.484375 
Q 38.671875 1.953125 28.125 -3.125 
L 27.734375 -1.5625 
Q 35.546875 5.078125 41.796875 13.859375 
Q 48.046875 22.65625 50 28.90625 
z
M 74.21875 25.390625 
Q 87.109375 17.1875 90.234375 13.46875 
Q 93.359375 9.765625 93.359375 6.640625 
Q 93.359375 5.078125 92.375 3.3125 
Q 91.40625 1.5625 91.015625 1.5625 
Q 89.0625 1.5625 86.328125 8.203125 
Q 82.03125 16.796875 73.4375 24.21875 
z
M 37.5 36.328125 
Q 40.625 37.890625 43.9375 44.921875 
Q 47.265625 51.953125 51.953125 63.28125 
L 48.828125 63.28125 
Q 43.75 63.28125 39.453125 62.109375 
L 35.9375 65.625 
L 52.734375 65.625 
Q 56.640625 76.171875 57.421875 81.25 
L 65.234375 76.5625 
Q 62.109375 74.609375 58.203125 65.625 
L 81.25 65.625 
L 85.9375 70.3125 
L 92.578125 63.28125 
L 57.421875 63.28125 
Q 51.171875 48.046875 45.3125 37.109375 
L 63.28125 37.109375 
Q 63.28125 48.046875 62.890625 55.859375 
L 71.09375 52.34375 
L 68.359375 50 
L 68.359375 37.109375 
L 82.03125 37.109375 
L 86.71875 41.796875 
L 93.359375 34.765625 
L 68.359375 34.765625 
L 68.359375 0.78125 
Q 68.359375 -3.125 66.984375 -5.078125 
Q 65.625 -7.03125 60.546875 -9.375 
Q 57.421875 -3.125 48.4375 -0.78125 
L 48.4375 0.78125 
Q 60.546875 -1.171875 61.90625 -0.78125 
Q 63.28125 -0.390625 63.28125 1.953125 
L 63.28125 34.765625 
L 45.3125 34.765625 
L 42.578125 31.25 
z
M 33.203125 78.125 
L 38.28125 73.046875 
L 35.15625 71.09375 
L 24.609375 46.875 
Q 31.640625 40.625 34.375 35.34375 
Q 37.109375 30.078125 36.90625 25.96875 
Q 36.71875 21.875 34.5625 18.359375 
Q 32.421875 14.84375 25.390625 11.71875 
Q 23.4375 17.1875 16.015625 19.921875 
L 16.40625 21.484375 
Q 22.265625 19.921875 25.390625 19.921875 
Q 28.125 19.921875 29.875 21.671875 
Q 31.640625 23.4375 30.859375 30.859375 
Q 30.078125 38.28125 22.265625 46.875 
L 29.6875 71.875 
L 14.84375 71.875 
L 14.84375 -7.421875 
L 9.375 -10.546875 
Q 9.765625 3.515625 9.765625 35.734375 
Q 9.765625 67.96875 9.375 77.734375 
L 14.84375 74.21875 
L 29.296875 74.21875 
z
" id="SimSun-38472"/>
      <path d="M 68.359375 39.84375 
L 68.359375 24.21875 
L 83.203125 24.21875 
L 83.203125 39.84375 
z
M 63.28125 60.15625 
Q 63.28125 70.703125 62.890625 81.640625 
L 71.875 77.734375 
L 68.359375 74.609375 
L 68.359375 60.15625 
L 82.421875 60.15625 
L 85.546875 63.671875 
L 91.40625 58.59375 
L 88.28125 56.25 
L 88.28125 32.421875 
Q 88.28125 26.5625 88.671875 19.140625 
L 83.203125 16.796875 
L 83.203125 21.875 
L 68.359375 21.875 
L 68.359375 8.203125 
Q 68.359375 -0.390625 68.75 -7.8125 
L 62.890625 -10.15625 
Q 63.28125 0 63.28125 6.25 
L 63.28125 21.875 
L 49.609375 21.875 
L 49.609375 17.1875 
L 44.140625 14.84375 
Q 44.53125 23.828125 44.53125 38.671875 
Q 44.53125 53.515625 44.140625 63.671875 
L 49.609375 60.15625 
z
M 49.609375 57.8125 
L 49.609375 42.1875 
L 63.28125 42.1875 
L 63.28125 57.8125 
z
M 68.359375 57.8125 
L 68.359375 42.1875 
L 83.203125 42.1875 
L 83.203125 57.8125 
z
M 49.609375 39.84375 
L 49.609375 24.21875 
L 63.28125 24.21875 
L 63.28125 39.84375 
z
M 20.703125 52.34375 
Q 20.703125 74.21875 20.3125 80.859375 
L 29.6875 76.953125 
L 26.171875 73.828125 
L 26.171875 52.34375 
L 31.640625 52.34375 
L 35.9375 56.640625 
L 42.578125 50 
L 26.171875 50 
L 26.171875 21.09375 
L 41.40625 26.171875 
L 42.1875 24.609375 
Q 11.71875 11.328125 9.765625 6.640625 
L 5.078125 14.84375 
Q 9.765625 15.625 20.703125 19.140625 
L 20.703125 50 
L 17.1875 50 
Q 12.109375 50 7.8125 48.828125 
L 4.296875 52.34375 
z
" id="SimSun-22372"/>
     </defs>
     <g style="fill:#ffffff;opacity:0.99;" transform="translate(9.593388 37.920842)scale(0.14 -0.14)">
      <use xlink:href="#SimSun-38472"/>
      <use x="100" xlink:href="#SimSun-22372"/>
     </g>
    </g>
   </g>
  </g>
 </g>
 <defs>
  <clipPath id="p5793e36745">
   <rect height="230.4" width="230.4" x="3.6" y="3.6"/>
  </clipPath>
 </defs>
</svg>
